<svg id="Layer_1" data-name="Layer 1" xmlns="http://www.w3.org/2000/svg" viewBox="0 0 1920 1080"><defs><style>.cls-1{fill:#e3d9fc;}.cls-2,.cls-5{fill:#2a0366;}.cls-3,.cls-4{fill:none;stroke-miterlimit:10;stroke-width:7px;}.cls-3{stroke:#2a0366;}.cls-4{stroke:#f7f7f7;}.cls-5{font-size:155.64px;font-family:Futura-Bold;font-weight:700;}</style></defs><rect class="cls-1" x="-8" y="-17" width="1939" height="1106"/><path class="cls-2" d="M439.39,529.53c-10,13.24-18.88,25.88-28.85,37.57-3.24,3.79-9.28,6.93-14.22,7.2-16,.91-32.11.7-48.14.1-3.95-.15-9.84-2.51-11.12-5.46-1.51-3.48-.39-9.77,2-13,29.94-40.37,60.28-80.45,90.66-120.5,6.27-8.27,12.83-8.2,19.24,0,8.74,11.22,17.18,22.69,25.78,34,4.21,5.56,5.23,11.33-.73,16s-11.37,2.4-15.64-3.2c-6-7.92-12-15.89-19-25.15-24.19,32.05-47.87,63.44-72.81,96.5,10.1,0,18.16.42,26.14-.26,2.36-.2,4.88-3.16,6.61-5.4,10-13,19.69-26.12,29.6-39.12,7.32-9.59,13.59-9.55,21,.1,9.19,12,18.65,23.88,27.23,36.34,4.46,6.48,9.33,9.58,17.23,8.6,5-.63,10.23-.12,17.72-.12-3.64-5-6.13-8.47-8.72-11.9-8-10.65-16.4-21-23.84-32.07-2.16-3.2-3.38-9.14-1.82-12.17s7-4.5,11-6c2.14-.78,4.8-.1,7.22-.12,16.17-.1,23.18-7.06,23.23-23.26q.1-28.17,0-56.34c-.06-16.09-7.13-23.23-23.36-23.27q-56.34-.14-112.68,0c-16.66.05-23.37,7.05-23.41,24.06-.05,18.78-.13,37.56,0,56.34.06,7.21-1.68,12.81-9.93,13.48-6.92.55-10.68-4.18-10.73-13.54-.11-20-.32-40,.06-60,.48-25,17.11-41.12,42.22-41.21q57.71-.18,115.41,0c26.65.08,42.91,16.58,42.95,43.25q0,26.35,0,52.71c0,27.86-6.22,37.43-32.3,48.91,10.46,13.88,21.16,27.38,31,41.51,2.73,3.93,5.09,10.9,3.36,14.33s-8.71,5.62-13.51,5.86c-14.81.73-29.69-.07-44.52.41-7.54.25-12.44-2.57-16.71-8.54C458.34,554.21,449.2,542.54,439.39,529.53Z"/><line class="cls-3" x1="594.87" y1="707" x2="594.87" y2="286"/><line class="cls-4" x1="612.23" y1="314.07" x2="612.23" y2="679.67"/><line class="cls-4" x1="576.77" y1="313.7" x2="576.77" y2="679.3"/><text class="cls-5" transform="translate(645 517.74)">educAtoR</text></svg>